<?xml version="1.0" encoding="UTF-8"?>
<svg width="23px" height="23px" viewBox="0 0 23 23" version="1.1" xmlns="http://www.w3.org/2000/svg" xmlns:xlink="http://www.w3.org/1999/xlink">
    <title>A3E45EF8-5B81-463E-93B7-448E54E81BA0</title>
    <g id="Page-1" stroke="none" stroke-width="1" fill="none" fill-rule="evenodd">
        <g id="1" transform="translate(-97.000000, -161.000000)" fill="#F7B500" fill-rule="nonzero">
            <g id="Group-4" transform="translate(67.000000, 131.000000)">
                <path d="M40.204148,30.0788963 C41.0698469,29.9737012 41.9450308,29.9737012 42.8106815,30.0788963 L43.1155539,30.1257406 C43.4516742,30.1734034 43.7803316,30.2317541 44.1090371,30.308159 L44.4064947,30.3845638 L44.4064947,30.3845638 C44.6289058,30.4430109 44.8491342,30.5078986 45.0671656,30.5792269 L45.3925632,30.6910498 C45.470611,30.7156996 45.5453846,30.7436714 45.627573,30.7732319 C45.8702383,30.866728 46.1095868,30.9684834 46.3452189,31.0782843 L46.7919813,31.2958372 L46.7919813,31.2958372 C47.5727954,31.7016928 48.3045468,32.1957486 48.9728394,32.7682312 L49.1199311,32.9021684 C49.3911,33.1420709 49.6502318,33.3943465 49.8972786,33.6588989 L50.0961293,33.878292 L50.0961293,33.878292 C50.2560766,34.0587043 50.4104387,34.2439739 50.5592013,34.434115 L50.8718398,34.8396353 L50.8718398,34.8396353 L50.8742953,34.8618298 L50.8742953,34.8618298 C53.6441529,38.7433146 53.7071042,43.9248116 51.0631492,47.865298 L50.8742953,48.1381702 L50.864425,48.1603647 L50.7707292,48.2770181 L50.7707292,48.2770181 C50.5565675,48.5695422 50.3292132,48.8510895 50.0887146,49.121708 L49.8898638,49.3411011 L49.8898638,49.3411011 C49.7269956,49.5171163 49.5575365,49.6878891 49.3815007,49.8534338 L48.9654246,50.2317688 L48.9654246,50.2317688 C48.2971321,50.8042514 47.5653806,51.2982591 46.7845665,51.7041628 L46.6884152,51.7510071 C46.3406912,51.9277445 45.9841081,52.086524 45.6201583,52.2267681 L45.3851485,52.3089502 C45.0641466,52.4256518 44.735441,52.5278137 44.39908,52.6154362 L44.1016224,52.691841 L44.1016224,52.691841 C43.884668,52.7427776 43.6648034,52.7856901 43.4427561,52.8227611 L42.8032667,52.9211037 L42.8032667,52.9211037 C41.9375679,53.0262988 41.0623839,53.0262988 40.1967333,52.9211037 L39.8918609,52.8742594 C39.5557406,52.8265966 39.2270832,52.7682459 38.8983776,52.691841 L38.60092,52.6154362 L38.60092,52.6154362 C38.378509,52.5569891 38.1582806,52.4921014 37.9402491,52.4207731 L37.6148515,52.3089502 C37.5368038,52.2843004 37.4620302,52.2563286 37.3798417,52.2267681 C37.1371764,52.133272 36.897828,52.0315166 36.6621959,51.9217157 L36.2154335,51.7041628 L36.2154335,51.7041628 C35.4346194,51.2983072 34.7028679,50.8042514 34.0345754,50.2317688 L33.8874836,50.0978316 C33.6168444,49.8579291 33.3577607,49.6056535 33.1101362,49.3411011 L32.9112854,49.121708 L32.9112854,49.121708 C32.6707868,48.8510895 32.4434807,48.5695422 32.2292708,48.2770181 L32.135575,48.1603647 L32.1257047,48.1381702 C29.3558471,44.2567324 29.2928958,39.0752365 31.9368508,35.1346602 L32.1257047,34.8617817 L32.135575,34.8395872 L32.2292708,34.7229338 L32.2292708,34.7229338 C32.4434325,34.4298801 32.6707868,34.1483328 32.9112854,33.878292 L33.1101362,33.6588989 L33.1101362,33.6588989 C33.2730044,33.4832688 33.4424635,33.312603 33.6184993,33.1469299 L34.0345754,32.7682312 L34.0345754,32.7682312 C34.7052272,32.1952671 35.4394342,31.7012595 36.2228483,31.2958372 L36.3189996,31.2489929 C36.6667235,31.0722555 37.0233067,30.913476 37.3872565,30.7732319 L37.6222663,30.6910498 C37.943846,30.5743482 38.2725034,30.4721863 38.6083348,30.3845638 L38.9057924,30.308159 L38.9057924,30.308159 C39.1227467,30.2572224 39.3426113,30.2143099 39.5646586,30.1772389 L40.204148,30.0788963 L40.204148,30.0788963 Z M37.5450371,46.8005318 C36.3317588,47.0173733 35.1530506,47.3959792 34.0404013,47.9261913 L34.1159935,48.0083734 C34.3099331,48.2269481 34.5104209,48.4381085 34.7207789,48.6377625 L34.8793781,48.7815692 C35.0130366,48.9068405 35.1508465,49.0268693 35.2927936,49.1416558 L35.59438,49.3755182 L35.59438,49.3755182 L35.6805587,49.4380635 C35.8295604,49.5479928 35.9814937,49.6534072 36.1363444,49.754321 L36.3708067,49.902318 L36.5351354,50.0017358 C36.7013098,50.0981526 36.870159,50.1900545 37.0416832,50.2774558 L37.4431562,50.474223 L37.4431562,50.474223 C37.6250589,50.5547522 37.8094866,50.6301674 37.995983,50.7007111 L38.4062582,50.8505662 L38.4062582,50.8505662 C38.596346,50.916299 38.7893655,50.973259 38.9840898,51.0243846 L39.4137044,51.1332208 C39.5262741,51.1578706 39.6429364,51.169377 39.757095,51.1898383 C38.8496038,49.8188841 38.1071154,48.3455754 37.5450371,46.8005318 Z M45.4615592,46.8006762 C44.899529,48.3457198 44.1569924,49.8190286 43.2495013,51.1899828 L43.4218586,51.1631604 L43.4218586,51.1631604 L43.5929882,51.1332689 L43.7302097,51.0979311 C44.0260302,51.0256185 44.3161212,50.9467583 44.6012529,50.8514328 L44.7302411,50.80377 C45.0129172,50.707626 45.2915009,50.5983387 45.5643067,50.4750896 L45.7064874,50.4060508 C45.8810395,50.3234995 46.0526813,50.2362195 46.2214129,50.1441963 L46.4723275,50.0026024 L46.6366562,49.9031846 C46.7944208,49.8064148 46.949275,49.7053655 47.1012048,49.6000652 L47.4130829,49.375464 L47.4130829,49.375464 L47.4986477,49.3107703 C47.6432518,49.1993967 47.7847103,49.0840004 47.9230088,48.9645814 L48.1280849,48.7824358 C48.1806623,48.7347731 48.234925,48.6879288 48.286684,48.6386291 C48.4269227,48.5055265 48.5631384,48.3673098 48.6955878,48.2251917 L48.966195,47.9263357 L48.966195,47.9263357 C47.8535938,47.3961237 46.6748375,47.0175177 45.4615592,46.8006762 Z M43.7926093,46.5516263 C42.2707994,46.3878397 40.7357969,46.3878397 39.213987,46.5516263 C39.7998985,48.0640763 40.5690127,49.4990141 41.5041407,50.8242794 C42.3333969,49.6456239 43.0325089,48.3812645 43.5895733,47.053349 L43.7926093,46.5516263 Z M36.6075016,42.3217252 L31.6853924,42.3217252 C31.8112028,43.8305643 32.2857482,45.2895261 33.0716179,46.5836903 C34.3315034,45.9404838 35.6772847,45.4816696 37.0676509,45.2213539 C36.8628218,44.4300238 36.7216884,43.6238492 36.6454486,42.8105198 L36.6075016,42.3217252 Z M51.3229372,42.3217252 L46.4008279,42.3217252 C46.3408357,43.3007374 46.1870032,44.2717096 45.9414972,45.2213539 C47.3316227,45.4817659 48.6771151,45.9405801 49.9367117,46.5836903 C50.6570481,45.397329 51.1158261,44.0725324 51.2842299,42.6978183 L51.3229372,42.3217252 Z M44.761489,42.3217252 L38.2467924,42.3217252 C38.3106846,43.2107078 38.4611949,44.0913133 38.696301,44.9510243 C39.628155,44.8404852 40.5657386,44.7856489 41.5041407,44.7867081 C42.4417243,44.7856008 43.3784894,44.840437 44.3095249,44.9510243 C44.498149,44.263294 44.6327551,43.5621604 44.7122337,42.8540325 L44.761489,42.3217252 Z M49.9367117,36.4164541 C48.6768262,37.0596125 47.3310449,37.5184267 45.9406787,37.7787905 C46.1455078,38.5701206 46.2866412,39.3762952 46.3628809,40.1896246 L46.4008279,40.6784193 L51.3229372,40.6784193 C51.1971268,39.1695801 50.7225814,37.7106183 49.9367117,36.4164541 Z M44.3120286,38.0449316 C43.3802709,38.1568669 42.4426391,38.2130993 41.5041889,38.2133882 C40.5666053,38.2144955 39.6298402,38.1596592 38.6988047,38.049072 C38.5101806,38.7368023 38.3755745,39.4379358 38.2960958,40.1460638 L38.2468406,40.6783711 L44.761489,40.6783711 C44.6979338,39.7879923 44.5473754,38.9059906 44.3120286,38.0449316 Z M33.0716179,36.4164541 C32.3512815,37.6027713 31.8925035,38.9275642 31.7240997,40.3023151 L31.6853924,40.6784193 L36.6075016,40.6784193 C36.6674939,39.699407 36.8213264,38.7284348 37.0668324,37.7787905 C35.6767069,37.5183785 34.3312145,37.0595643 33.0716179,36.4164541 Z M41.5041407,32.175865 C40.5712756,33.5018044 39.8030762,34.9362607 39.2164425,36.4476997 C39.9763604,36.5283894 40.7399858,36.5692157 41.5041407,36.5701304 C42.2691623,36.5698897 43.0336062,36.5293041 43.7942945,36.4485182 C43.208383,34.9360682 42.4392688,33.5011303 41.5041407,32.175865 Z M39.7588283,31.8101135 C39.6446216,31.8306711 39.5279111,31.8421776 39.4153414,31.8668274 L39.2781199,31.9021652 C38.9822994,31.9744778 38.6922084,32.053338 38.4070767,32.1486635 L38.2780885,32.1963263 L38.2780885,32.1963263 C37.9954123,32.2924702 37.7168287,32.4017576 37.4440229,32.5250067 L37.3018422,32.5940455 C37.1276432,32.6762116 36.956119,32.7633847 36.7872698,32.8555363 L36.5360021,32.9974939 L36.3716733,33.0969117 C36.1350265,33.2420664 35.9049278,33.39685 35.6814254,33.5611662 L35.5096819,33.689326 L35.5096819,33.689326 L35.189637,33.9471382 L35.189637,33.9471382 L34.8802447,34.2176604 C34.8276672,34.2653232 34.7734046,34.3121675 34.7216456,34.3614672 C34.5814069,34.4945698 34.4451912,34.6327865 34.3127417,34.7749046 L34.041268,35.074579 L34.041268,35.074579 C35.1538691,35.6047911 36.3326254,35.9833971 37.5459038,36.2002385 C38.1082228,34.6549061 38.850952,33.1813084 39.7588283,31.8101135 Z M43.2512346,31.810258 C44.1587258,33.1812121 44.9012142,34.6545209 45.4632925,36.1995645 C46.6765708,35.982723 47.855279,35.6041171 48.9679283,35.073905 L48.8923361,34.9917229 C48.6983965,34.7731482 48.4979087,34.5619877 48.2875506,34.3623338 L48.1289515,34.218527 C47.995293,34.0932558 47.8574831,33.973227 47.715536,33.8584405 L47.4139495,33.6245781 L47.4139495,33.6245781 L47.3277709,33.5620328 C47.1787692,33.4521035 47.0268359,33.3466891 46.8719852,33.2457753 L46.6375229,33.0977782 L46.4731942,32.9983605 C46.3070198,32.9019437 46.1381706,32.8100418 45.9666464,32.7226404 L45.5651734,32.5258733 L45.5651734,32.5258733 C45.3832707,32.4453441 45.1988429,32.3699289 45.0123466,32.2993852 L44.6020714,32.1495301 L44.6020714,32.1495301 C44.3169397,32.0509308 44.0252117,31.9720706 43.7310282,31.9030318 L43.5946252,31.8668755 L43.5946252,31.8668755 L43.2512346,31.810258 L43.2512346,31.810258 Z" id="Shape"/>
            </g>
        </g>
    </g>
</svg>