<?xml version="1.0" encoding="UTF-8"?>
<svg width="30px" height="30px" viewBox="0 0 30 30" version="1.1" xmlns="http://www.w3.org/2000/svg" xmlns:xlink="http://www.w3.org/1999/xlink">
    <title>527D5750-6693-4F6A-BD4A-ACAC2FE67EE2</title>
    <defs>
        <circle id="path-1" cx="15" cy="15" r="15"></circle>
    </defs>
    <g id="Page-1" stroke="none" stroke-width="1" fill="none" fill-rule="evenodd">
        <g id="Active-Geysers" transform="translate(-181.000000, -318.000000)">
            <g id="stroke-copy-4" transform="translate(84.000000, 258.000000)">
                <g id="Mask" transform="translate(20.000000, 21.000000)">
                    <g id="Group-6-Copy-2" transform="translate(77.000000, 39.000000)">
                        <mask id="mask-2" fill="white">
                            <use xlink:href="#path-1"></use>
                        </mask>
                        <circle stroke="#D7D7D7" cx="15" cy="15" r="14.5"></circle>
                        <g id="Logo" mask="url(#mask-2)">
                            <g transform="translate(3.000000, 3.000000)">
                                <g id="Group-2" transform="translate(0.750000, 0.750000)">
                                    <path d="M11.3351121,22.5476119 C17.5487431,22.5476119 22.5476119,17.5487431 22.5476119,11.3351121 C22.5476119,5.12148115 17.5487431,0.122612377 11.3351121,0.122612377 C5.12148115,0.122612377 0.122612377,5.12148115 0.122612377,11.3351121 C0.122612377,17.5487431 5.12148115,22.5476119 11.3351121,22.5476119 Z" id="Path" fill-rule="nonzero"></path>
                                    <path d="M16.3246752,12.4507309 C16.089448,12.0823531 15.7954139,11.7989855 15.4131696,11.5722915 C15.1485389,11.4306077 14.7662946,11.2889239 14.2664366,11.1755769 C14.7368912,11.0338931 15.1191355,10.8355358 15.3837662,10.580505 C15.6778002,10.353811 15.8836241,10.0704435 16.0306411,9.75873915 C16.1776582,9.44703485 16.2658684,9.13533054 16.2658684,8.79528948 C16.2658684,8.31356464 16.1188514,7.88851332 15.8248173,7.49179875 C15.5307832,7.09508418 15.1191355,6.78337987 14.5898741,6.58502258 C14.2664366,6.47167556 13.8841923,6.3866653 13.4431412,6.32999179 L13.4431412,4.79980702 L11.9435674,4.57311298 L11.9435674,6.27331828 L10.9732549,6.27331828 L10.9732549,4.74313351 L9.47368106,4.57311298 L9.47368106,6.27331828 L6.29811294,6.27331828 L6.29811294,7.71849279 L6.70976066,7.71849279 C7.00379474,7.71849279 7.18021519,7.74682954 7.29782883,7.80350305 C7.38603905,7.86017656 7.47424928,7.91685007 7.50365269,8.00186034 C7.5330561,8.0868706 7.5624595,8.28522789 7.5624595,8.59693219 L7.5624595,14.3776302 C7.5624595,14.6893345 7.5330561,14.8593551 7.50365269,14.9727021 C7.47424928,15.0577123 7.38603905,15.1143859 7.29782883,15.1710594 C7.2096186,15.2277329 7.00379474,15.2277329 6.70976066,15.2277329 L6.29811294,15.2277329 L6.29811294,16.6729074 L9.47368106,16.6729074 L9.47368106,18.0897451 L10.9732549,18.3731127 L10.9732549,16.6729074 L11.914164,16.6729074 L11.9435674,16.6729074 L11.9435674,18.1180819 L13.4431412,18.3731127 L13.4431412,16.5878971 C13.9135957,16.5312236 14.3252435,16.4462133 14.6486809,16.3045296 C15.2661525,16.0494988 15.7660105,15.7094577 16.1188514,15.2560696 C16.4716923,14.8026816 16.6481127,14.29262 16.6481127,13.7542216 C16.6481127,13.2158233 16.5304991,12.8191087 16.3246752,12.4507309 M10.2087663,7.94518683 L11.3849026,7.94518683 C12.061181,7.94518683 12.5610389,7.97352358 12.8256696,8.05853385 C13.0903003,8.14354411 13.2961242,8.28522789 13.4431412,8.45524842 C13.5901582,8.6536057 13.6489651,8.88029974 13.6489651,9.16366729 C13.6489651,9.41869809 13.5607548,9.64539213 13.4137378,9.87208617 C13.2667207,10.0704435 13.0314935,10.2121272 12.7374594,10.3254743 C12.4434253,10.4388213 11.9729708,10.467158 11.3849026,10.467158 L10.2087663,10.467158 L10.2087663,7.94518683 L10.2087663,7.94518683 Z M13.5607548,14.3492935 C13.354931,14.6043243 13.0903003,14.7743448 12.7962662,14.8593551 C12.5022321,14.9443653 12.1199878,14.9727021 11.6789367,14.9727021 L10.8850447,14.9727021 C10.620414,14.9727021 10.4733969,14.9727021 10.4145901,14.9443653 C10.3557833,14.9160286 10.3263799,14.8593551 10.2969765,14.8026816 C10.2675731,14.746008 10.2675731,14.5759875 10.2675731,14.2359465 L10.2675731,11.9973428 L11.6495333,11.9973428 C12.2670049,11.9973428 12.708056,12.0540163 13.0020901,12.1673633 C13.2961242,12.2807104 13.5313514,12.4507309 13.6783685,12.6490882 C13.8253855,12.8474455 13.9135957,13.130813 13.9135957,13.4425173 C13.8547889,13.7825584 13.7665787,14.0942627 13.5607548,14.3492935" id="Shape" stroke="#FFFFFF" stroke-width="0.526909101" fill="#FB8007" fill-rule="nonzero"></path>
                                    <circle id="Oval" stroke="#4D5CFF" stroke-width="1.58072724" cx="11.2124998" cy="11.2124998" r="11.2124998"></circle>
                                    <path d="M4.32505795,4.75541094 L1.69512302,2.86663949 C1.43212953,2.603646 1.47994653,2.12547601 1.79075702,1.79075702 L1.79075702,1.79075702 C2.12547601,1.45603803 2.603646,1.40822103 2.86663949,1.69512302 L4.75541094,4.32505795 C4.92277044,4.49241745 4.97058743,4.73150244 4.85104494,4.85104494 L4.85104494,4.85104494 C4.73150244,4.97058743 4.49241745,4.92277044 4.32505795,4.75541094 Z" id="Path" stroke="#4D5CFF" stroke-width="0.5" fill="#4D5CFF" fill-rule="nonzero"></path>
                                    <path d="M17.6934971,4.32505795 L19.5822685,1.69512302 C19.845262,1.43212953 20.323432,1.47994653 20.658151,1.79075702 L20.658151,1.79075702 C20.99287,2.12547601 21.040687,2.603646 20.753785,2.86663949 L18.1238501,4.75541094 C17.9564906,4.92277044 17.7174056,4.97058743 17.5978631,4.85104494 L17.5978631,4.85104494 C17.4783206,4.73150244 17.5261376,4.49241745 17.6934971,4.32505795 Z" id="Path" stroke="#4D5CFF" stroke-width="0.5" fill="#4D5CFF" fill-rule="nonzero"></path>
                                    <path d="M4.32505795,17.6695886 L1.69512302,19.55836 C1.43212953,19.8213535 1.47994653,20.2995235 1.79075702,20.6342425 L1.79075702,20.6342425 C2.12547601,20.9689615 2.603646,21.0167785 2.86663949,20.7298765 L4.75541094,18.0999416 C4.92277044,17.9325821 4.97058743,17.6934971 4.85104494,17.5739546 L4.85104494,17.5739546 C4.73150244,17.4544121 4.49241745,17.5022291 4.32505795,17.6695886 Z" id="Path" stroke="#4D5CFF" stroke-width="0.5" fill="#4D5CFF" fill-rule="nonzero"></path>
                                    <path d="M17.6934971,18.0999416 L19.5822685,20.7298765 C19.845262,20.99287 20.323432,20.945053 20.658151,20.6342425 L20.658151,20.6342425 C20.99287,20.2995235 21.040687,19.8213535 20.753785,19.55836 L18.1238501,17.6695886 C17.9564906,17.5022291 17.7174056,17.4544121 17.5978631,17.5739546 L17.5978631,17.5739546 C17.4783206,17.6934971 17.5261376,17.9325821 17.6934971,18.0999416 Z" id="Path" stroke="#4D5CFF" stroke-width="0.5" fill="#4D5CFF" fill-rule="nonzero"></path>
                                </g>
                                <g id="Group" transform="translate(1.500000, 1.500000)"></g>
                            </g>
                        </g>
                    </g>
                </g>
            </g>
        </g>
    </g>
</svg>