<svg id="Layer_1" data-name="Layer 1" xmlns="http://www.w3.org/2000/svg" viewBox="0 0 300 100"><defs><style>.cls-1{isolation:isolate;font-size:40px;font-family:Inter-Medium, Inter;}.cls-1,.cls-5{fill:#ff9b00;}.cls-2{letter-spacing:-0.02em;}.cls-3{fill:#5a3bff;}.cls-4{fill:#1b1464;}</style></defs><title>BTCProxy_withText_logo</title><g id="Text"><text class="cls-1" transform="translate(128.11 66.7)">PR<tspan class="cls-2" x="51.36" y="0">O</tspan><tspan x="81.33" y="0">XY</tspan></text></g><g id="Layer_2" data-name="Layer 2"><circle class="cls-3" cx="71.2" cy="50.3" r="44.8"/><circle class="cls-4" cx="71.2" cy="50.3" r="39.36"/><path class="cls-3" d="M45.87,26.83l-11-7.89c-1.12-1.13-.92-3.16.44-4.52h0c1.36-1.37,3.4-1.56,4.52-.44L47.67,25c.72.71.9,1.7.4,2.2h0A1.65,1.65,0,0,1,45.87,26.83Z"/><path class="cls-3" d="M94.73,25l7.9-11c1.12-1.12,3.15-.93,4.52.44h0c1.36,1.36,1.55,3.39.43,4.52l-11,7.89c-.72.71-1.71.89-2.21.4h0A1.65,1.65,0,0,1,94.73,25Z"/><path class="cls-3" d="M45.87,73.72l-11,7.89c-1.12,1.12-.92,3.16.44,4.52h0c1.36,1.36,3.4,1.56,4.52.44l7.89-11c.72-.72.9-1.71.4-2.2h0C47.57,72.82,46.58,73,45.87,73.72Z"/><path class="cls-3" d="M94.73,75.52l7.9,11c1.12,1.12,3.15.92,4.52-.44h0c1.36-1.36,1.55-3.4.43-4.52l-11-7.89c-.72-.72-1.71-.9-2.21-.4h0C93.84,73.81,94,74.8,94.73,75.52Z"/><path class="cls-5" d="M89.67,54.1a8.65,8.65,0,0,0-3.28-3.24,17.07,17.07,0,0,0-4.13-1.51,12.2,12.2,0,0,0,4-2.17,9.09,9.09,0,0,0,2.36-3,8.46,8.46,0,0,0,.81-3.61,8.15,8.15,0,0,0-1.54-4.81,9.75,9.75,0,0,0-4.4-3.36,15.76,15.76,0,0,0-4.07-.94V25.79l-5.37-.88v6.31H70.63V25.58l-5.38-.67v6.31H53.84v5.33h1.51a5.19,5.19,0,0,1,2,.27,1.56,1.56,0,0,1,.76.74,6.4,6.4,0,0,1,.22,2.18V61.16a6.7,6.7,0,0,1-.22,2.16,1.58,1.58,0,0,1-.76.75,5.5,5.5,0,0,1-2,.25H53.84v5.33H65.25V75l5.38,1V69.65h3.46v5.4l5.37.91V69.33a18.25,18.25,0,0,0,4.36-1A11.41,11.41,0,0,0,89,64.36a9.43,9.43,0,0,0,1.84-5.62,9.12,9.12,0,0,0-1.2-4.64M67.88,37.42h4.21a19.2,19.2,0,0,1,5.13.46A4.07,4.07,0,0,1,79.4,39.4,4.4,4.4,0,0,1,80.17,42a4.33,4.33,0,0,1-.81,2.58A4.56,4.56,0,0,1,77,46.23a15.67,15.67,0,0,1-4.89.56H67.89V37.42Zm11.9,23.74A5.18,5.18,0,0,1,77.05,63a14.9,14.9,0,0,1-4,.46H70.19a5.58,5.58,0,0,1-1.72-.15.89.89,0,0,1-.45-.53,10.09,10.09,0,0,1-.14-2.07V52.43h5a14.58,14.58,0,0,1,4.86.61,4.74,4.74,0,0,1,2.39,1.79,5,5,0,0,1,.8,2.89,5.37,5.37,0,0,1-1.12,3.44"/></g></svg>