<?xml version="1.0" encoding="UTF-8"?>
<svg width="14px" height="21px" viewBox="0 0 14 21" version="1.1" xmlns="http://www.w3.org/2000/svg" xmlns:xlink="http://www.w3.org/1999/xlink">
    <title>F6066C48-6D86-4168-9FEB-6C7CC1FE1CF6</title>
    <g id="Page-1" stroke="none" stroke-width="1" fill="none" fill-rule="evenodd">
        <g id="1" transform="translate(-1107.000000, -296.000000)" fill="#000000" fill-rule="nonzero">
            <path d="M1112.99962,296 L1112.99962,298.863636 L1114.99949,298.863636 L1114.99949,296 L1116.99937,296 L1116.99937,298.912318 C1119.27029,299.150298 1120.99193,300.978253 1120.99911,303.159091 C1120.99424,304.462881 1120.36603,305.69317 1119.29322,306.5 C1120.24341,307.21233 1120.85044,308.261912 1120.97562,309.409037 C1121.23104,311.749165 1119.45077,313.843855 1116.99937,314.087682 L1116.99937,314.087682 L1116.99937,317 L1114.99949,317 L1114.99949,314.136364 L1112.99962,314.136364 L1112.99962,317 L1110.99975,317 L1110.99975,314.136364 L1107,314.136364 L1107,298.863636 L1110.99975,298.863636 L1110.99975,296 L1112.99962,296 Z M1116.4994,307.454545 L1108.99987,307.454545 L1108.99987,312.227273 L1116.4994,312.227273 C1117.88,312.227273 1118.99924,311.158838 1118.99924,309.840909 C1118.99924,308.52298 1117.88,307.454545 1116.4994,307.454545 L1116.4994,307.454545 Z M1116.4994,300.772727 L1108.99987,300.772727 L1108.99987,305.545455 L1116.4994,305.545455 C1117.88,305.545455 1118.99924,304.47702 1118.99924,303.159091 C1118.99924,301.841162 1117.88,300.772727 1116.4994,300.772727 L1116.4994,300.772727 Z" id="Combined-Shape"/>
        </g>
    </g>
</svg>