<?xml version="1.0" encoding="UTF-8"?>
<svg width="20px" height="15px" viewBox="0 0 20 15" version="1.1" xmlns="http://www.w3.org/2000/svg" xmlns:xlink="http://www.w3.org/1999/xlink">
    <title>6EF141D6-97E3-4487-9C72-14508F9DDCD5</title>
    <g id="Page-1" stroke="none" stroke-width="1" fill="none" fill-rule="evenodd">
        <g id="Active-Geysers" transform="translate(-1111.000000, -342.000000)" fill="#FFFFFF" fill-rule="nonzero">
            <g id="Group-4" transform="translate(84.000000, 258.000000)">
                <g id="Mask" transform="translate(919.000000, 63.000000)">
                    <path d="M120.643996,21.2348375 L120.734803,21.3217249 L127.360908,28.5 L120.734803,35.6782851 C120.3602,36.0841058 119.727541,36.1094122 119.32172,35.7348084 C118.947116,35.3890204 118.896738,34.8233508 119.18584,34.4191818 L119.265197,34.3217249 L123.714,29.5 L109,29.500005 C108.447715,29.500005 108,29.0522897 108,28.500005 C108,27.9871692 108.38604,27.5644978 108.883379,27.5067327 L109,27.500005 L123.716,27.5 L119.265197,22.6782851 C118.919408,22.3036813 118.914372,21.7357952 119.234832,21.3560087 L119.32172,21.2652015 C119.696324,20.9194135 120.26421,20.9143772 120.643996,21.2348375 Z" id="Combined-Shape"></path>
                </g>
            </g>
        </g>
    </g>
</svg>