<?xml version="1.0" encoding="UTF-8"?>
<svg width="68px" height="68px" viewBox="0 0 68 68" version="1.1" xmlns="http://www.w3.org/2000/svg" xmlns:xlink="http://www.w3.org/1999/xlink">
    <title>3F31AB75-C749-4A1A-A213-BE3D4BF580D5</title>
    <defs>
        <circle id="path-1" cx="34" cy="34" r="34"></circle>
    </defs>
    <g id="Page-1" stroke="none" stroke-width="1" fill="none" fill-rule="evenodd">
        <g id="Active-Geysers" transform="translate(-104.000000, -279.000000)">
            <g id="Group-4" transform="translate(84.000000, 258.000000)">
                <g id="Rectangle" transform="translate(20.000000, 21.000000)">
                    <mask id="mask-2" fill="white">
                        <use xlink:href="#path-1"></use>
                    </mask>
                    <circle stroke="#D7D7D7" cx="34" cy="34" r="33.5"></circle>
                    <g mask="url(#mask-2)">
                        <g transform="translate(0.000000, -1.000000)">
                            <rect id="Rectangle" fill="none" opacity="0.0857282366" x="0" y="0" width="68" height="68" rx="16.2000006"></rect>
                            <path d="M34.1169918,45.979137 C35.6705438,46.375137 37.0602642,47.262164 37.7830069,48.3188127 C38.4893405,49.3514614 38.7923739,50.2514615 39.1078678,52.2538399 C39.2323436,53.043894 39.367694,53.836867 39.4086681,54.0165427 C39.6456122,55.0543806 40.1066839,55.8836779 40.6780555,56.3004347 C41.5855375,56.9620563 43.148184,57.0029212 44.6854241,56.4058401 C44.9463183,56.3043266 45.1727761,56.2342725 45.188635,56.2501644 C45.2446264,56.3052995 44.4704234,56.8212996 43.9243613,57.0930833 C43.1895465,57.4585969 42.6052613,57.6000023 41.8288899,57.6000023 C40.4209803,57.6000023 39.2521186,56.8868131 38.2767672,55.4322184 C38.0848104,55.14584 37.6534175,54.2886508 37.3180838,53.5268129 C36.2882621,51.1874615 35.7797757,50.4749209 34.5840834,49.6949209 C33.5435165,49.0164344 32.2015669,48.8948128 31.192038,49.3877857 C29.8659148,50.0354614 29.4959182,51.7232453 30.4457013,52.792867 C30.8232066,53.2180562 31.5271451,53.5845427 32.1027565,53.655894 C33.1796369,53.7895157 34.1050815,52.9735156 34.1050815,51.8905967 C34.1050815,51.1874615 33.8337334,50.7862723 33.1506703,50.4791371 C32.217717,50.0597858 31.2149201,50.5501642 31.2197101,51.422921 C31.2217814,51.7952453 31.3845126,52.0287588 31.7591374,52.1977318 C31.9994798,52.3060561 32.0050466,52.3144886 31.8090766,52.273948 C30.9530873,52.0971913 30.7525538,51.0694074 31.4407953,50.387029 C32.2671383,49.5681101 33.9758157,49.9294074 34.562593,51.0476777 C34.8091172,51.5172993 34.8376955,52.4526507 34.6227919,53.0172994 C34.1418158,54.2815157 32.7393112,54.9460562 31.3165785,54.5844346 C30.3479266,54.3379481 29.9534945,54.0713535 28.7856361,52.8732994 C26.7562863,50.7911372 25.9684577,50.3876777 23.0427918,49.932975 L22.4821654,49.8457317 L23.1201118,49.3092993 C25.2628685,47.5073532 27.9289995,46.2272451 30.3575714,45.834164 C31.4042229,45.6648667 33.1477898,45.7320018 34.1169918,45.979137 Z M44.4463762,35.4518933 C44.4898424,35.4518933 44.6708922,35.5493528 44.8486084,35.6684447 C45.2022283,35.9054933 45.9113453,36.3047041 47.8001662,37.3304772 C50.1573086,38.610488 51.5014267,39.6016232 52.4154141,40.7340016 C53.2158004,41.7256233 53.7109848,42.8552449 53.9495148,44.2326504 C54.0844768,45.0126504 54.0051826,46.8898397 53.804196,47.6753532 C53.1704894,50.1525425 51.6975586,52.0981642 49.5967469,53.2336237 C49.4941499,53.2890832 49.3950411,53.3412273 49.3073919,53.3861283 L49.1497349,53.4651088 C49.0579657,53.5097722 48.9960167,53.5369036 48.982783,53.5371924 C48.9526836,53.53784 49.0649901,53.2537318 49.2319935,52.9060562 C49.9385213,51.4345966 50.0191101,50.0033533 49.4847641,48.4102722 C49.157554,47.4347046 48.4905115,46.2444343 47.1438042,44.2326504 C45.5776622,41.8939476 45.1938134,41.2715368 44.8086376,40.44678 C44.0414578,38.8042069 43.8652952,37.2182934 44.285587,35.7392771 C44.3306067,35.5812338 44.4028777,35.4518933 44.4463762,35.4518933 Z M12.6005198,10.8000004 C12.6424969,10.8000004 15.958023,13.6411708 19.4335819,16.6803736 L20.0137897,17.1882879 C23.3039798,20.0717226 26.5826275,23.0008189 27.226841,23.7489415 L27.226841,23.7489415 L27.6035695,24.1863902 L27.5706866,24.8665956 C27.5274147,25.7640335 27.2453214,26.360174 26.5712233,26.9788876 C25.7941398,27.6920768 24.8487584,28.0746498 23.3640791,28.276639 C22.4534253,28.4005633 22.1221696,28.5372984 21.7541797,28.9410174 C21.4013689,29.3281958 21.2664716,29.8105309 21.169053,31.0335904 C21.0182321,32.9266716 20.7952697,33.7270067 19.8955876,35.6051365 C19.026361,37.4196015 18.8499394,38.105288 19.0020225,39.0771259 C19.1873769,40.2615584 19.8584973,41.1228016 21.4297206,42.1926503 C22.6289083,43.0089747 23.1729962,43.5356774 23.4718546,44.1690828 C23.6554612,44.558272 23.6793465,44.7000018 23.6757864,45.3765423 C23.6703814,46.4104883 23.5034751,46.8272451 22.7925457,47.5819478 C21.6438798,48.8014073 19.6014546,49.7964344 17.0861445,50.3620561 C16.0350913,50.5984885 15.9886799,50.5981642 15.9886799,50.3562182 C15.9886799,50.052002 15.598138,49.2742722 14.9198519,48.2280019 C14.1338811,47.0156775 13.8264363,46.4095154 13.5318987,45.4913532 C13.1954613,44.4428126 13.1004571,43.7341639 13.1492377,42.637299 C13.1953901,41.6000773 13.3092599,41.1399584 13.7233894,40.3184773 C14.0521724,39.6661637 14.26538,39.3695043 15.5683752,37.7509961 C17.7943229,34.9860663 18.5975572,33.3705743 18.8831783,31.0835688 C19.1379879,29.0434066 19.4909605,28.0576227 20.2805692,27.180293 C20.7542309,26.6540767 20.858964,26.4530605 20.858964,26.0706497 C20.858964,25.8826713 21.3189353,25.3981632 20.7447803,24.0782604 C18.1815196,19.5103701 17.4662421,18.2356472 17.3055489,17.9164973 L17.2869523,17.8786803 C17.2741172,17.851736 17.2676844,17.8357592 17.265756,17.8273196 C17.266031,17.819407 17.2671788,17.81921 17.2688043,17.8197799 C17.2799118,17.8273388 17.2862561,17.8332964 17.2930539,17.8396872 C17.3378794,17.8818494 18.9812766,20.3993846 20.9449901,23.4342171 C22.3594698,25.9348551 22.5145952,25.8893524 22.7900213,26.1495578 C22.7900213,26.1495578 22.9531408,26.3320551 23.4281618,26.3320551 C23.8481623,26.3320551 24.6870306,26.0980227 25.095056,25.8670389 C25.8287704,25.4515794 25.9899481,24.9214713 25.5616621,24.3318172 C25.0429484,23.6177199 20.3752044,20.2377089 13.5980818,12.045354 C13.0315068,11.3604459 12.5825847,10.8000004 12.6005198,10.8000004 Z M15.1383221,42.5432449 C15.1383221,42.6716774 15.2095995,42.7650828 15.3702399,42.8474612 C15.6407368,42.9859477 15.6603727,43.1419477 15.447547,43.4604342 C15.2320188,43.7831369 15.2494117,44.0669207 15.4966382,44.2595693 C15.8950804,44.570272 16.4591051,44.3993531 16.7545004,43.8784882 C17.0629388,43.334272 16.8990424,42.6350287 16.3831121,42.2931909 C15.8956306,41.9704882 15.1383221,42.1225963 15.1383221,42.5432449 Z M41.7355168,34.1107473 L42.0091629,34.41665 C42.387898,34.840023 42.6871447,35.3817419 42.9407892,36.1032987 C43.1343642,36.6540015 43.1561458,36.8177852 43.1547539,37.712661 C43.1532006,38.5912232 43.129024,38.7754069 42.9502721,39.2711043 C42.6684378,40.0527259 42.3186045,40.6069638 41.731633,41.2018719 C40.6768579,42.2711368 39.3207648,42.8630287 37.3638479,43.1085423 C37.1021894,43.1412242 36.4551576,43.1913697 35.7737294,43.2332927 L35.3635527,43.2572543 C35.295438,43.261015 35.2276812,43.2646421 35.1606334,43.2681098 C32.9640537,43.3819477 31.5183419,43.6170828 30.2192758,44.0714612 C30.0325298,44.1366504 29.865753,44.1765423 29.8488261,44.1596774 C29.8086326,44.1197474 30.3163916,43.8032977 30.884247,43.4998117 L31.1488249,43.3617158 C31.2372556,43.3166934 31.3253323,43.2730319 31.4112785,43.2317855 C32.4413591,42.7375152 33.4667791,42.4680017 35.7642405,42.0869206 C36.8991513,41.8984882 38.0711848,41.6701638 38.3688132,41.5793206 C41.1793568,40.7210611 42.6240653,38.5062502 42.1616991,35.7648014 C42.0893309,35.3360122 41.9638519,34.788423 41.8828423,34.5479365 L41.7355168,34.1107473 Z M38.4457448,26.1787794 C38.4667821,26.1787794 38.6901976,26.3434713 38.9421914,26.5448119 C40.1130921,27.4801633 41.4242627,27.879666 45.0539966,28.4070822 C47.1900861,28.7174606 48.3921219,28.9681633 49.5009466,29.3343904 C53.0251706,30.4985201 55.2056001,32.860931 55.7257055,36.0786825 C55.8768501,37.0136771 55.78817,38.7670394 55.543167,39.6911367 C55.349948,40.4210286 54.7596105,41.7366503 54.602964,41.7872449 C54.5595949,41.8011909 54.5171967,41.6354611 54.505869,41.4100233 C54.4466411,40.2017529 53.8336481,39.025461 52.8041177,38.1443042 C51.6334759,37.1424988 50.0608609,36.3448555 46.2152525,34.8028554 C40.4411437,32.4873418 38.4074894,30.477439 38.4074894,27.086174 C38.4074894,26.5871038 38.42474,26.1787794 38.4457448,26.1787794 Z M28.5405036,28.6334606 C28.9837098,28.4979903 29.8997686,28.5844876 30.3305143,28.8025309 C31.1652722,29.2252552 31.7713066,30.1881417 31.6398077,30.8829418 C31.4793744,31.730531 30.0995253,32.408531 28.5122814,32.419558 C27.7015707,32.4252337 27.4021621,32.3167472 27.0925586,31.9049526 C26.9009255,31.6500013 26.8283308,30.8244661 26.9562696,30.353839 C27.1659948,29.5824012 27.8435235,28.8466714 28.5405036,28.6334606 Z M28.1257463,29.7673309 C28.1257463,30.1386174 28.7509408,30.5437309 29.3239954,30.5437309 C29.7054168,30.5437309 30.2273994,30.3171904 30.3959887,30.0785525 C30.6407651,29.7321417 30.5336693,29.3577741 30.1173908,29.1045741 C29.3246103,28.6224336 28.1257463,29.0214174 28.1257463,29.7673309 Z M28.4286502,14.3030925 C30.5136678,14.7967141 32.4109036,16.0612223 34.4361107,18.3070061 L34.9741463,18.9036332 L35.7438182,18.7803899 C38.9863373,18.2614061 42.2849773,18.6738818 45.0439635,19.9432873 C45.8029225,20.2925197 46.99978,20.9877089 47.1493062,21.1663468 C47.1968828,21.2232657 47.2842682,21.5897522 47.3434962,21.9808225 C47.5483666,23.3337739 47.4457695,24.3708334 47.0305267,25.1454172 C46.8042954,25.5669091 46.7916731,25.7004983 46.9437885,26.0612118 C47.0651572,26.3490821 47.4033714,26.5621308 47.7383491,26.5616767 C48.4238396,26.5607362 49.1617614,25.4568659 49.5038594,23.9208982 L49.6397924,23.3108117 L49.9087455,23.6143469 C51.3845891,25.2797524 52.5439031,27.5509633 52.7429479,29.1676228 L52.7947318,29.5891471 L52.546816,29.2059579 C52.1199217,28.5465741 51.6907619,28.0977092 51.141528,27.735666 C50.1511593,27.083093 49.1041518,26.8610281 46.3314429,26.7154713 C43.8270074,26.5840551 42.4096149,26.3710065 41.0041975,25.9145524 C38.6129747,25.1380551 37.4075406,24.1039145 34.5670594,20.392217 C33.3054396,18.7436116 32.5256375,17.8314818 31.7499457,17.0969196 C29.9873806,15.4278168 28.2554652,14.5524654 26.0384955,14.2099789 C25.4298719,14.1159573 25.4042064,14.1049303 25.6906042,14.0610816 C26.2394821,13.9770168 27.5355383,14.0916006 28.4286502,14.3030925 Z M48.4791838,14.9131465 C48.4963372,14.9131465 48.4442296,15.1075465 48.3633171,15.3451466 C48.1435588,15.9909412 48.10731,16.8742709 48.2587782,17.9019899 C48.4510262,19.2059683 48.5604199,19.3941089 49.944347,20.8026819 C50.5932651,21.4633954 51.3483403,22.2966495 51.6218245,22.6544117 L52.1195981,23.304909 L51.6218245,22.8400225 C51.0133627,22.2715144 49.6139004,21.1628117 49.3048147,21.0043143 C49.0973551,20.8980333 49.0666084,20.8998819 48.9387666,21.0266279 C48.8209581,21.1434171 48.796037,21.318909 48.7798545,22.1485955 C48.7542862,23.441709 48.5772497,24.2716875 48.1503554,25.1015686 C47.9346751,25.5205091 47.8884378,25.4649813 48.0532194,25.0438091 L48.0917748,24.948001 C48.2294212,24.614214 48.2579618,24.4454874 48.262105,23.5504828 L48.262662,23.1516334 L48.262662,23.1516334 C48.2600728,20.6364657 47.9603729,20.0317954 46.2023065,18.9959683 C45.7569642,18.7335575 45.0229262,18.3551359 44.5714022,18.1549629 C44.1198458,17.9547899 43.761177,17.7804331 43.7742201,17.7673953 C43.8239974,17.7180656 45.5385005,18.2164872 46.2288458,18.4809088 C47.2554634,18.8741845 47.4247323,18.9251683 47.5493375,18.8777197 C47.6331629,18.8459035 47.6736191,18.6035034 47.7140753,17.8909304 C47.7771871,16.7862169 47.9273606,16.0575574 48.2299733,15.3921087 C48.3497238,15.1287249 48.4617067,14.9131465 48.4791838,14.9131465 Z M25.4373482,15.3590925 L25.7186,15.410206 C26.2467643,15.5061412 27.1574181,15.8437304 27.5838268,16.1016979 C28.7540155,16.8095034 29.2606247,17.7414169 29.7760049,20.1344116 C29.9269876,20.8353414 30.1250613,21.6285414 30.2162011,21.897082 C30.3629116,22.329309 30.9173563,23.3389307 31.3681359,23.9946172 C31.6928215,24.4668658 31.4771412,24.6906496 30.7594152,24.6261091 C29.66331,24.5275794 28.1785659,23.5069955 27.220724,22.1936441 C25.985158,20.4994387 25.2206645,17.9018277 25.3861791,15.9600006 L25.4373482,15.3590925 Z" id="Combined-Shape" fill="#FF017A" fill-rule="evenodd"></path>
                        </g>
                    </g>
                </g>
            </g>
        </g>
    </g>
</svg>